<svg id="Layer_1" data-name="Layer 1" xmlns="http://www.w3.org/2000/svg" viewBox="0 0 414 279"><defs><style>.cls-1{fill:#2e86ff;}.cls-2{fill:#4ac4f9;opacity:0.5;}</style></defs><title>c4board</title><path class="cls-1" d="M24.5-.5a25.07,25.07,0,0,0-25,25v229a25.07,25.07,0,0,0,25,25h364a25.07,25.07,0,0,0,25-25V24.5a25.07,25.07,0,0,0-25-25Zm46,9a18,18,0,1,1-18,18A18.09,18.09,0,0,1,70.5,8.5Zm1,261a18,18,0,1,1,18-18A18.09,18.09,0,0,1,71.5,269.5Zm0-45a18,18,0,1,1,18-18A18.09,18.09,0,0,1,71.5,224.5Zm0-46a18,18,0,1,1,18-18A18.09,18.09,0,0,1,71.5,178.5Zm0-44a18,18,0,1,1,18-18A18.09,18.09,0,0,1,71.5,134.5Zm0-46a18,18,0,1,1,18-18A18.09,18.09,0,0,1,71.5,88.5Zm44-80a18,18,0,1,1-18,18A18.09,18.09,0,0,1,115.5,8.5Zm1,261a18,18,0,1,1,18-18A18.09,18.09,0,0,1,116.5,269.5Zm0-45a18,18,0,1,1,18-18A18.09,18.09,0,0,1,116.5,224.5Zm0-46a18,18,0,1,1,18-18A18.09,18.09,0,0,1,116.5,178.5Zm0-44a18,18,0,1,1,18-18A18.09,18.09,0,0,1,116.5,134.5Zm0-46a18,18,0,1,1,18-18A18.09,18.09,0,0,1,116.5,88.5Zm44-80a18,18,0,1,1-18,18A18.09,18.09,0,0,1,160.5,8.5Zm1,261a18,18,0,1,1,18-18A18.09,18.09,0,0,1,161.5,269.5Zm0-45a18,18,0,1,1,18-18A18.09,18.09,0,0,1,161.5,224.5Zm0-46a18,18,0,1,1,18-18A18.09,18.09,0,0,1,161.5,178.5Zm0-44a18,18,0,1,1,18-18A18.09,18.09,0,0,1,161.5,134.5Zm0-46a18,18,0,1,1,18-18A18.09,18.09,0,0,1,161.5,88.5Zm44-80a18,18,0,1,1-18,18A18.09,18.09,0,0,1,205.5,8.5Zm1,261a18,18,0,1,1,18-18A18.09,18.09,0,0,1,206.5,269.5Zm0-45a18,18,0,1,1,18-18A18.09,18.09,0,0,1,206.5,224.5Zm0-46a18,18,0,1,1,18-18A18.09,18.09,0,0,1,206.5,178.5Zm0-44a18,18,0,1,1,18-18A18.09,18.09,0,0,1,206.5,134.5Zm0-46a18,18,0,1,1,18-18A18.09,18.09,0,0,1,206.5,88.5Zm44-79a18,18,0,1,1-18,18A18.09,18.09,0,0,1,250.5,9.5Zm1,261a18,18,0,1,1,18-18A18.09,18.09,0,0,1,251.5,270.5Zm0-45a18,18,0,1,1,18-18A18.09,18.09,0,0,1,251.5,225.5Zm0-46a18,18,0,1,1,18-18A18.09,18.09,0,0,1,251.5,179.5Zm0-44a18,18,0,1,1,18-18A18.09,18.09,0,0,1,251.5,135.5Zm0-46a18,18,0,1,1,18-18A18.09,18.09,0,0,1,251.5,89.5Zm45-81a18,18,0,1,1-18,18A18.09,18.09,0,0,1,296.5,8.5Zm1,261a18,18,0,1,1,18-18A18.09,18.09,0,0,1,297.5,269.5Zm0-45a18,18,0,1,1,18-18A18.09,18.09,0,0,1,297.5,224.5Zm0-46a18,18,0,1,1,18-18A18.09,18.09,0,0,1,297.5,178.5Zm0-44a18,18,0,1,1,18-18A18.09,18.09,0,0,1,297.5,134.5Zm0-46a18,18,0,1,1,18-18A18.09,18.09,0,0,1,297.5,88.5Zm44-80a18,18,0,1,1-18,18A18.09,18.09,0,0,1,341.5,8.5Zm1,261a18,18,0,1,1,18-18A18.09,18.09,0,0,1,342.5,269.5Zm0-45a18,18,0,1,1,18-18A18.09,18.09,0,0,1,342.5,224.5Zm0-46a18,18,0,1,1,18-18A18.09,18.09,0,0,1,342.5,178.5Zm0-44a18,18,0,1,1,18-18A18.09,18.09,0,0,1,342.5,134.5Zm0-46a18,18,0,1,1,18-18A18.09,18.09,0,0,1,342.5,88.5Z" transform="translate(0.5 0.5)"/><path class="cls-2" d="M35.5-.5v279h342V-.5Zm35,9a18,18,0,1,1-18,18A18.09,18.09,0,0,1,70.5,8.5Zm1,261a18,18,0,1,1,18-18A18.09,18.09,0,0,1,71.5,269.5Zm0-45a18,18,0,1,1,18-18A18.09,18.09,0,0,1,71.5,224.5Zm0-46a18,18,0,1,1,18-18A18.09,18.09,0,0,1,71.5,178.5Zm0-44a18,18,0,1,1,18-18A18.09,18.09,0,0,1,71.5,134.5Zm0-46a18,18,0,1,1,18-18A18.09,18.09,0,0,1,71.5,88.5Zm44-80a18,18,0,1,1-18,18A18.09,18.09,0,0,1,115.5,8.5Zm1,261a18,18,0,1,1,18-18A18.09,18.09,0,0,1,116.5,269.5Zm0-45a18,18,0,1,1,18-18A18.09,18.09,0,0,1,116.5,224.5Zm0-46a18,18,0,1,1,18-18A18.09,18.09,0,0,1,116.5,178.5Zm0-44a18,18,0,1,1,18-18A18.09,18.09,0,0,1,116.5,134.5Zm0-46a18,18,0,1,1,18-18A18.09,18.09,0,0,1,116.5,88.5Zm44-80a18,18,0,1,1-18,18A18.09,18.09,0,0,1,160.5,8.5Zm1,261a18,18,0,1,1,18-18A18.09,18.09,0,0,1,161.5,269.5Zm0-45a18,18,0,1,1,18-18A18.09,18.09,0,0,1,161.5,224.5Zm0-46a18,18,0,1,1,18-18A18.09,18.09,0,0,1,161.5,178.5Zm0-44a18,18,0,1,1,18-18A18.09,18.09,0,0,1,161.5,134.5Zm0-46a18,18,0,1,1,18-18A18.09,18.09,0,0,1,161.5,88.5Zm44-80a18,18,0,1,1-18,18A18.09,18.09,0,0,1,205.5,8.5Zm1,261a18,18,0,1,1,18-18A18.09,18.09,0,0,1,206.5,269.5Zm0-45a18,18,0,1,1,18-18A18.09,18.09,0,0,1,206.5,224.5Zm0-46a18,18,0,1,1,18-18A18.09,18.09,0,0,1,206.5,178.5Zm0-44a18,18,0,1,1,18-18A18.09,18.09,0,0,1,206.5,134.5Zm0-46a18,18,0,1,1,18-18A18.09,18.09,0,0,1,206.5,88.5Zm44-79a18,18,0,1,1-18,18A18.09,18.09,0,0,1,250.5,9.5Zm1,261a18,18,0,1,1,18-18A18.09,18.09,0,0,1,251.5,270.5Zm0-45a18,18,0,1,1,18-18A18.09,18.09,0,0,1,251.5,225.5Zm0-46a18,18,0,1,1,18-18A18.09,18.09,0,0,1,251.5,179.5Zm0-44a18,18,0,1,1,18-18A18.09,18.09,0,0,1,251.5,135.5Zm0-46a18,18,0,1,1,18-18A18.09,18.09,0,0,1,251.5,89.5Zm45-81a18,18,0,1,1-18,18A18.09,18.09,0,0,1,296.5,8.5Zm1,261a18,18,0,1,1,18-18A18.09,18.09,0,0,1,297.5,269.5Zm0-45a18,18,0,1,1,18-18A18.09,18.09,0,0,1,297.5,224.5Zm0-46a18,18,0,1,1,18-18A18.09,18.09,0,0,1,297.5,178.5Zm0-44a18,18,0,1,1,18-18A18.09,18.09,0,0,1,297.5,134.5Zm0-46a18,18,0,1,1,18-18A18.09,18.09,0,0,1,297.5,88.5Zm44-80a18,18,0,1,1-18,18A18.09,18.09,0,0,1,341.5,8.5Zm1,261a18,18,0,1,1,18-18A18.09,18.09,0,0,1,342.5,269.5Zm0-45a18,18,0,1,1,18-18A18.09,18.09,0,0,1,342.5,224.5Zm0-46a18,18,0,1,1,18-18A18.09,18.09,0,0,1,342.5,178.5Zm0-44a18,18,0,1,1,18-18A18.09,18.09,0,0,1,342.5,134.5Zm0-46a18,18,0,1,1,18-18A18.09,18.09,0,0,1,342.5,88.5Z" transform="translate(0.5 0.5)"/></svg>